<?xml version="1.0" standalone="no"?>
<!DOCTYPE svg PUBLIC "-//W3C//DTD SVG 20010904//EN"
 "http://www.w3.org/TR/2001/REC-SVG-20010904/DTD/svg10.dtd">
<svg version="1.0" xmlns="http://www.w3.org/2000/svg"
 width="707.000000pt" height="717.000000pt" viewBox="0 0 707.000000 717.000000"
 preserveAspectRatio="xMidYMid meet">

<g transform="translate(0.000000,717.000000) scale(0.100000,-0.100000)"
fill="#000000" stroke="none">
<path d="M3350 6848 c-92 -125 -165 -183 -360 -286 -121 -63 -186 -89 -542
-208 -290 -97 -462 -186 -541 -283 -21 -25 -55 -72 -75 -104 -36 -58 -36 -61
-40 -183 -4 -106 -2 -125 11 -130 29 -11 80 15 182 91 117 86 330 197 500 260
213 79 222 81 685 157 155 25 302 29 444 10 55 -7 167 -17 250 -22 201 -13
263 -25 471 -91 148 -47 217 -75 352 -143 70 -36 140 -69 154 -75 14 -5 63
-35 110 -67 95 -65 141 -86 163 -78 11 4 19 -3 27 -22 14 -39 40 -66 126 -130
39 -30 73 -58 75 -62 2 -4 38 -36 80 -71 252 -207 513 -576 662 -936 21 -49
48 -115 61 -145 50 -119 71 -198 139 -525 8 -38 17 -160 20 -270 4 -110 12
-232 18 -271 10 -63 8 -87 -16 -230 -15 -87 -36 -208 -46 -267 -10 -60 -24
-131 -31 -158 -11 -42 -11 -52 2 -64 13 -13 24 -14 70 -4 178 38 272 164 317
424 14 84 17 174 17 570 0 414 2 477 17 530 46 161 71 222 147 355 17 30 31
67 31 81 0 24 -6 28 -72 48 -90 26 -163 67 -268 150 -125 99 -291 285 -412
463 -206 303 -394 500 -548 578 -60 30 -190 39 -257 17 -27 -8 -68 -17 -93
-19 l-45 -3 -6 80 c-6 81 -36 170 -79 240 -68 110 -243 207 -550 307 -570 186
-650 220 -833 357 -26 20 -75 71 -109 113 l-61 78 -51 0 -51 0 -45 -62z m174
-32 c70 -90 99 -116 211 -191 131 -88 266 -141 790 -309 249 -79 400 -161 476
-258 47 -59 89 -180 89 -257 0 -75 5 -75 -114 3 -46 30 -130 76 -187 102 -57
26 -120 57 -139 69 -19 12 -75 38 -125 58 -83 33 -124 46 -320 105 -101 31
-224 50 -361 57 -65 4 -168 13 -227 21 -121 16 -277 17 -352 3 -27 -5 -108
-16 -180 -25 -71 -9 -146 -22 -165 -29 -19 -7 -78 -20 -130 -30 -225 -42 -600
-204 -800 -345 -140 -99 -149 -105 -161 -93 -11 11 -7 119 6 182 9 38 78 147
128 199 42 44 240 152 347 190 47 16 153 52 235 80 302 100 371 128 519 212
162 92 250 167 326 279 22 34 47 61 54 61 7 0 43 -38 80 -84z m1992 -1112
c128 -61 322 -261 489 -504 227 -332 451 -558 640 -646 39 -18 87 -35 108 -39
20 -4 40 -11 43 -16 3 -5 -19 -53 -49 -107 -53 -96 -116 -266 -136 -372 -7
-36 -10 -215 -9 -510 3 -406 1 -465 -15 -545 -34 -167 -71 -248 -145 -317 -49
-46 -141 -86 -164 -72 -6 4 -8 23 -5 43 19 126 68 392 75 412 18 46 23 177 13
275 -6 55 -15 182 -21 284 -17 352 -117 704 -307 1085 -95 189 -268 438 -403
579 -43 44 -93 98 -111 119 -19 21 -65 64 -104 95 -38 30 -78 64 -88 74 -10
10 -42 36 -72 58 -57 42 -83 76 -68 90 4 5 42 18 83 29 93 26 169 21 246 -15z"/>
<path d="M3300 6140 c-237 -23 -349 -46 -590 -122 -477 -150 -915 -432 -1241
-799 -220 -247 -403 -549 -532 -879 -59 -149 -119 -378 -151 -575 -78 -475
-15 -1037 166 -1485 68 -170 123 -277 241 -475 146 -244 409 -532 664 -727
398 -303 917 -506 1408 -549 166 -14 436 -7 610 16 217 29 503 109 696 196 48
22 89 39 91 39 12 0 221 118 298 168 205 132 306 215 488 399 219 222 367 431
513 723 64 129 81 169 111 255 11 33 31 80 43 105 13 25 28 70 34 100 6 30 24
120 40 200 50 251 56 314 55 620 -1 294 -4 323 -53 565 -103 507 -347 974
-716 1372 -84 92 -256 243 -371 328 -49 35 -94 69 -99 73 -49 40 -297 167
-507 261 -58 25 -230 80 -363 115 -55 15 -113 31 -130 36 -31 10 -144 25 -305
40 -108 11 -290 10 -400 0z m191 -847 c10 -12 14 -51 15 -142 1 -69 2 -135 4
-146 4 -32 17 31 19 90 2 63 14 84 38 69 16 -10 18 -26 16 -116 l-2 -104 31 4
c27 4 29 2 23 -17 -7 -24 10 -29 19 -5 11 29 28 2 23 -37 -3 -22 -1 -37 4 -33
5 3 9 9 9 15 0 5 8 28 19 52 10 23 24 58 31 77 19 51 58 100 80 100 17 0 18
-6 14 -52 l-5 -53 19 36 c39 75 78 124 100 127 31 5 28 -16 -15 -101 -57 -109
-58 -114 -13 -74 35 33 70 41 70 17 0 -23 -38 -93 -81 -147 -27 -35 -49 -65
-49 -68 0 -3 12 2 26 11 23 16 26 16 41 1 15 -15 14 -19 -21 -52 -44 -42 -66
-45 -66 -10 0 27 -9 32 -28 13 -21 -21 -38 6 -23 38 16 36 8 41 -14 8 -15 -23
-19 -25 -26 -11 -6 9 -5 26 1 42 15 39 13 41 -15 15 -17 -16 -36 -23 -55 -22
-46 4 -36 -16 23 -42 58 -27 152 -103 194 -159 15 -20 31 -36 34 -37 14 0 16
39 3 44 -25 10 -15 29 44 85 34 32 43 44 22 29 -45 -32 -101 -61 -107 -55 -6
6 187 207 199 207 12 0 27 -42 21 -57 -3 -7 -21 -22 -40 -34 -19 -12 -32 -24
-29 -26 6 -6 76 35 91 53 6 6 40 34 77 62 60 45 121 72 134 59 13 -12 -29 -66
-85 -111 -34 -27 -61 -51 -61 -53 0 -6 64 33 105 63 79 56 175 105 202 102 79
-9 -36 -120 -207 -199 -44 -20 -158 -89 -147 -89 9 0 88 39 138 68 80 45 159
60 159 29 0 -13 -50 -67 -63 -67 -4 0 -15 -6 -22 -14 -8 -8 -53 -29 -100 -48
-47 -18 -85 -36 -85 -40 0 -4 12 -3 27 3 32 12 73 4 73 -15 0 -20 -106 -67
-192 -86 -77 -17 -78 -16 -92 4 -14 20 -15 20 -15 2 -1 -11 4 -34 10 -51 l12
-31 23 21 c33 30 350 115 375 99 31 -19 -7 -43 -141 -88 -25 -8 -36 -15 -25
-15 51 -1 378 40 396 50 23 12 85 4 95 -12 12 -20 -6 -57 -33 -67 -16 -6 -68
-13 -118 -16 -49 -3 -133 -10 -185 -16 -52 -6 -153 -11 -224 -12 -123 -1 -130
0 -146 22 -17 22 -17 22 -15 -16 1 -28 6 -38 16 -36 8 2 91 6 184 8 94 2 267
8 385 13 118 4 233 7 255 5 22 -1 47 -3 56 -3 27 -1 30 -29 6 -52 -22 -20 -28
-20 -442 -17 -231 2 -428 7 -437 12 -13 6 -18 2 -22 -16 -21 -111 -30 -146
-48 -186 -30 -68 -65 -120 -117 -174 -42 -45 -44 -48 -21 -48 23 0 24 -1 6
-17 -13 -13 -20 -15 -23 -5 -5 13 -43 17 -43 4 0 -12 -118 -61 -164 -69 l-37
-6 21 -23 22 -22 -26 -18 c-15 -9 -29 -14 -32 -11 -8 8 -8 40 1 60 7 16 0 17
-71 16 -52 -1 -95 5 -124 16 -25 9 -54 19 -65 22 -77 23 -205 136 -246 216
-22 43 -29 45 -55 16 -19 -21 -19 -21 6 -18 20 3 26 -1 28 -18 2 -13 10 -23
19 -23 11 0 14 -7 11 -25 -4 -19 -1 -25 13 -25 22 0 24 -19 6 -44 -11 -15 -20
-16 -87 -6 -41 6 -96 10 -122 10 -25 0 -49 3 -52 8 -3 5 29 31 70 57 68 44
113 81 68 56 -69 -38 -190 -92 -249 -111 -38 -13 -81 -33 -95 -46 -14 -12 -65
-44 -115 -70 -49 -26 -146 -79 -215 -117 -226 -127 -275 -148 -328 -145 -39 3
-47 6 -50 25 -2 12 9 35 27 55 27 31 69 54 206 113 17 7 64 29 105 48 41 19
103 44 137 57 35 12 68 29 74 36 6 8 17 14 23 14 7 0 84 32 171 70 88 39 171
76 185 82 14 6 33 14 43 19 40 21 111 40 129 36 15 -4 18 -2 13 11 -4 9 -14
43 -22 75 -12 46 -18 54 -27 43 -6 -8 -20 -16 -31 -19 -18 -4 -17 -5 3 -6 20
-1 23 -5 20 -38 -3 -34 -8 -39 -58 -64 -30 -15 -104 -49 -165 -74 -60 -26
-128 -55 -150 -64 -22 -10 -62 -26 -90 -36 -27 -10 -54 -21 -60 -25 -26 -17
-104 -40 -145 -42 -39 -3 -45 0 -48 18 -2 14 6 27 23 38 33 22 189 82 235 90
19 4 44 11 55 16 11 5 47 18 80 29 33 11 76 27 95 35 48 21 14 21 -79 0 -73
-17 -101 -14 -101 8 1 26 51 49 123 57 39 5 88 15 107 24 44 20 28 20 -90 2
-142 -22 -353 -45 -370 -41 -8 2 -27 7 -42 10 -38 9 -38 44 0 51 15 3 41 10
57 15 47 14 346 39 502 42 l143 3 0 60 c1 64 20 167 37 200 6 11 21 40 33 65
13 25 46 69 74 99 38 40 47 55 36 59 -33 11 -163 171 -183 225 -14 38 22 64
51 35 7 -7 12 -8 12 -2 0 11 -26 50 -52 78 -19 21 -23 62 -9 85 12 19 81 -15
98 -49 7 -14 26 -54 43 -90 17 -36 36 -69 42 -75 6 -5 3 4 -5 20 -24 48 -38
111 -29 134 7 21 9 20 38 -16 17 -21 45 -69 63 -108 18 -38 35 -64 38 -57 3 6
16 12 29 12 14 0 27 7 30 15 8 20 23 19 47 -2 22 -20 22 -26 -1 149 -5 32 -4
64 0 73 14 23 47 19 52 -7 3 -13 10 -43 15 -68 l9 -45 0 55 c1 30 -3 75 -7
100 -14 86 23 149 60 103z m-782 -396 c20 -11 54 -37 76 -57 38 -35 93 -77
125 -95 8 -5 -2 12 -22 37 -54 66 -51 104 4 56 14 -13 45 -39 68 -58 98 -83
113 -98 106 -116 -5 -13 -9 -15 -18 -6 -20 20 -28 13 -16 -14 10 -22 9 -27 -5
-35 -9 -6 -17 -19 -17 -30 0 -16 -5 -18 -25 -13 -27 7 -36 -12 -10 -22 8 -4
15 -15 15 -25 0 -26 -28 -24 -92 5 -88 39 -220 93 -275 110 -56 19 -123 72
-123 99 0 27 61 21 142 -15 40 -18 75 -35 78 -38 3 -3 23 -14 45 -24 22 -10
45 -21 50 -24 6 -3 7 -2 4 1 -7 9 -169 107 -175 107 -14 0 -156 73 -192 100
-32 23 -42 37 -40 53 5 36 56 34 125 -4 32 -18 60 -35 63 -38 11 -13 72 -43
76 -38 3 3 -9 15 -25 27 -37 25 -55 56 -47 77 7 18 52 10 105 -20z m378 -133
c18 -14 33 -31 33 -38 0 -19 -20 -34 -39 -29 -33 8 -68 93 -39 93 6 0 26 -11
45 -26z m-212 -248 c28 -7 61 -18 74 -25 78 -42 -118 -17 -204 26 -78 40 -67
58 17 31 35 -11 86 -25 113 -32z m-26 -65 c51 -11 98 -24 103 -29 16 -16 -1
-32 -35 -33 -29 -2 -30 -2 -5 -6 25 -4 45 -28 30 -36 -4 -2 -151 0 -327 5
-345 10 -368 14 -373 61 l-3 27 108 0 c59 0 187 -9 283 -20 205 -23 186 -22
175 -11 -6 5 -57 17 -115 25 -87 13 -108 20 -130 41 -40 41 -12 46 98 19 54
-14 139 -33 191 -43z m-249 -124 c301 -2 350 -7 350 -37 0 -23 -2 -23 -481
-46 -359 -17 -366 -17 -392 2 -39 28 -35 58 11 81 34 17 49 18 123 10 46 -5
221 -9 389 -10z m1737 -72 c153 -3 295 -8 315 -11 41 -6 88 -38 88 -59 0 -43
-130 -38 -599 21 -40 5 -52 4 -47 -4 4 -7 18 -12 31 -12 13 0 68 -9 122 -19
54 -10 115 -22 136 -25 21 -4 41 -14 44 -22 15 -39 -52 -48 -148 -20 -29 9
-60 16 -68 15 -15 -1 57 -24 214 -71 170 -50 203 -61 254 -87 62 -31 84 -56
61 -71 -8 -5 -25 -10 -38 -10 -21 0 -166 51 -372 131 -255 98 -310 119 -319
119 -11 0 -8 60 3 79 4 6 4 16 0 23 -8 12 24 40 37 33 4 -3 132 -7 286 -10z
m-277 -166 c151 -57 414 -163 506 -205 28 -12 91 -37 140 -54 206 -72 329
-136 375 -193 28 -37 19 -54 -33 -60 -37 -4 -56 2 -138 44 -209 108 -381 189
-442 210 -76 26 -85 33 -104 77 -13 31 -17 34 -46 29 -25 -3 -61 7 -145 44
-155 67 -193 90 -193 116 0 18 16 16 80 -8z m-50 -52 c129 -68 169 -91 165
-97 -3 -4 -35 -10 -72 -14 -82 -9 -118 -14 -159 -22 -27 -5 -32 -2 -37 17 -8
30 0 41 23 29 30 -16 35 -12 12 9 -44 38 -15 55 43 26 l30 -15 -33 27 c-52 45
-33 72 28 40z m-123 -142 c7 -20 -2 -29 -21 -22 -9 4 -13 13 -10 22 8 19 23
19 31 0z m-767 -21 c0 -9 -7 -14 -17 -12 -25 5 -28 28 -4 28 12 0 21 -6 21
-16z m1110 -14 c5 -10 22 -68 36 -127 14 -59 52 -218 85 -351 33 -134 58 -249
56 -256 -3 -7 -52 -17 -128 -25 -113 -12 -249 -46 -369 -92 -59 -23 -196 -96
-269 -144 -37 -25 -73 -45 -79 -45 -7 0 -14 10 -16 23 -3 12 -7 194 -9 405
l-4 383 26 18 c46 33 294 159 366 186 39 15 106 30 150 34 133 14 143 13 155
-9z m-1034 -7 c16 -16 16 -18 1 -21 -21 -4 -59 17 -52 29 9 14 32 11 51 -8z
m1117 -45 c8 -35 29 -115 45 -178 17 -63 56 -212 86 -330 31 -118 60 -230 66
-249 13 -45 -1 -61 -54 -61 -53 0 -250 -35 -341 -61 -178 -51 -320 -118 -486
-229 -57 -39 -108 -70 -112 -70 -5 0 -41 20 -80 44 -245 148 -576 255 -872
282 -54 5 -78 11 -83 22 -3 8 12 92 33 186 45 202 76 345 110 516 34 171 35
174 45 164 8 -8 1 -49 -45 -299 -61 -330 -84 -469 -76 -476 3 -4 72 -16 153
-28 81 -12 177 -28 214 -37 151 -35 398 -144 520 -229 36 -25 70 -45 76 -45 5
0 41 22 78 49 85 62 237 149 310 178 164 65 265 90 418 102 115 9 142 19 142
52 0 10 -32 148 -70 306 -39 159 -77 315 -85 348 -8 33 -18 70 -21 83 -4 12
-2 22 4 22 6 0 17 -28 25 -62z m-1408 37 c133 -17 233 -46 357 -102 84 -38
188 -98 199 -115 15 -24 31 -799 17 -814 -4 -3 -52 19 -106 50 -107 60 -200
102 -309 140 -129 44 -181 56 -323 76 -79 11 -145 22 -148 24 -2 3 7 65 22
138 14 73 44 232 66 353 22 121 43 230 45 243 6 27 18 27 180 7z m1618 -90
c32 -15 89 -45 125 -68 37 -22 110 -60 162 -84 79 -37 202 -103 278 -148 126
-75 204 -152 160 -156 -64 -7 -138 12 -178 46 -8 7 -35 23 -60 37 -25 13 -56
31 -70 39 -47 30 -255 156 -368 223 -62 37 -115 66 -118 63 -8 -7 55 -50 181
-122 153 -87 228 -145 249 -190 23 -49 18 -69 -19 -73 -35 -3 -81 23 -245 139
-63 45 -127 89 -143 98 -27 16 -57 87 -57 135 0 11 -7 39 -16 63 -9 23 -14 50
-10 59 5 14 10 13 39 -8 17 -14 58 -38 90 -53z m-1957 -7 c-9 -44 -24 -59
-133 -125 -52 -32 -105 -65 -117 -73 -13 -8 -48 -29 -78 -47 -30 -18 -65 -42
-78 -54 -38 -32 -177 -122 -253 -162 -72 -39 -167 -60 -167 -37 0 45 134 149
310 243 47 24 108 58 135 75 28 18 88 52 135 76 47 25 117 65 155 90 86 55
100 57 91 14z m834 12 c0 -5 14 -10 30 -10 25 0 30 -4 30 -25 0 -32 -23 -33
-45 -2 -8 12 -16 21 -18 19 -5 -8 -36 11 -31 19 7 12 34 11 34 -1z m118 -41
c-1 -13 -11 -25 -20 -27 -14 -3 -18 3 -18 26 0 30 17 46 33 32 5 -4 7 -18 5
-31z m112 37 c0 -3 -4 -8 -10 -11 -5 -3 -10 -1 -10 4 0 6 5 11 10 11 6 0 10
-2 10 -4z m-1095 -155 c-7 -43 -13 -50 -115 -133 -35 -29 -71 -59 -80 -66 -56
-49 -137 -103 -168 -112 -82 -22 -104 -8 -79 53 17 40 68 83 166 141 39 23
105 66 148 96 132 92 140 94 128 21z m3585 -1083 c0 -36 -10 -44 -105 -86
-191 -84 -367 -148 -540 -196 -93 -27 -124 -49 -161 -118 -19 -37 -134 -198
-185 -261 -119 -144 -320 -326 -464 -419 -136 -87 -154 -97 -269 -153 -179
-86 -383 -146 -601 -177 -139 -19 -457 -17 -594 5 -210 33 -349 73 -526 148
-273 116 -483 253 -692 452 -97 94 -236 255 -273 317 -55 93 -82 119 -148 140
-36 11 -71 20 -79 20 -18 0 -389 126 -475 161 -71 29 -88 42 -88 67 0 20 34
14 163 -28 127 -42 341 -102 509 -141 l97 -22 45 -71 c112 -177 345 -426 518
-554 320 -238 648 -374 1027 -427 358 -51 831 39 1167 220 337 182 701 531
895 857 22 38 32 45 80 56 133 33 420 126 526 172 157 67 173 71 173 38z"/>
<path d="M3801 4944 c0 -11 3 -14 6 -6 3 7 2 16 -1 19 -3 4 -6 -2 -5 -13z"/>
<path d="M3455 4849 c-21 -5 -45 -7 -52 -4 -8 2 -16 -2 -20 -11 -4 -10 -13
-14 -29 -10 -12 3 -25 3 -27 -2 -3 -4 64 -7 149 -7 130 0 151 2 139 14 -8 8
-32 13 -59 13 -25 -1 -46 3 -46 8 0 11 -1 11 -55 -1z"/>
<path d="M3273 4826 c4 -10 1 -18 -8 -21 -47 -15 -48 -16 -38 -26 8 -8 21 -5
45 8 34 18 34 18 14 37 -17 17 -19 17 -13 2z"/>
<path d="M3160 4783 c0 -17 27 -46 33 -36 4 6 -2 18 -13 28 -11 10 -20 14 -20
8z"/>
<path d="M3377 4748 c-90 -13 -196 -84 -257 -173 -55 -80 -80 -166 -80 -276 0
-83 4 -110 25 -162 73 -178 231 -296 400 -297 156 0 279 58 383 184 140 169
116 441 -54 612 -89 89 -145 114 -271 117 -55 1 -121 -1 -146 -5z m143 -89 c0
-12 -21 -40 -46 -63 -37 -34 -45 -48 -39 -65 9 -30 44 -26 81 10 34 33 54 32
54 -3 l0 -21 24 22 c21 20 23 26 13 57 -9 28 -7 37 8 54 10 11 25 20 33 20 23
0 82 -40 82 -56 0 -9 11 -14 28 -14 44 0 65 -30 59 -82 -8 -67 -18 -101 -36
-122 -15 -18 -15 -19 21 -12 29 5 41 2 62 -16 46 -42 39 -60 -34 -84 -51 -16
-70 -28 -88 -55 -31 -45 -26 -83 11 -87 26 -3 37 11 17 23 -14 9 -13 58 2 73
19 19 48 15 48 -7 0 -10 9 -21 20 -24 25 -7 26 -29 0 -52 -18 -16 -18 -19 -4
-47 9 -17 12 -34 7 -38 -19 -19 -136 -80 -153 -80 -24 0 -123 110 -163 180
l-31 54 -10 -34 c-5 -19 -19 -66 -33 -105 l-23 -70 29 33 c37 41 66 44 56 5
-3 -16 -12 -35 -20 -43 -7 -8 -20 -30 -29 -47 -12 -25 -23 -33 -42 -33 -27 0
-29 14 -8 65 7 19 7 19 -28 -2 -51 -30 -111 -38 -140 -19 -13 9 -39 47 -58 86
-19 38 -42 72 -51 75 -27 9 -38 28 -54 89 -19 72 -19 90 1 107 14 11 18 10 30
-6 8 -10 14 -33 14 -51 0 -88 31 -84 66 9 51 132 81 164 145 155 21 -3 24 -9
27 -50 3 -51 8 -55 36 -35 16 12 15 15 -8 47 -14 19 -32 47 -39 62 -9 19 -17
24 -27 18 -33 -20 -42 26 -11 54 15 13 18 26 14 51 -4 27 0 39 20 59 32 32 76
44 88 25 7 -12 13 -11 36 2 33 19 43 16 43 -12z m-235 -168 c12 -40 -20 -70
-56 -51 -20 11 -23 27 -13 54 9 23 61 21 69 -3z m-77 -75 c4 -36 -8 -49 -42
-40 -20 5 -26 12 -26 33 0 35 8 43 40 39 19 -2 26 -9 28 -32z m354 -441 c-6
-57 -62 -107 -83 -73 -12 18 -1 48 30 79 34 35 57 32 53 -6z"/>
<path d="M3641 4515 c-25 -18 -38 -22 -47 -14 -9 7 -21 5 -41 -8 -37 -23 -44
-35 -31 -50 8 -10 8 -21 -1 -39 -6 -14 -11 -35 -11 -48 0 -37 120 -219 135
-204 3 3 7 21 8 40 1 19 10 46 20 61 27 41 20 47 -23 24 -45 -25 -72 -17 -78
23 -7 43 8 68 63 105 54 38 55 39 55 87 0 26 -3 48 -7 48 -5 -1 -23 -12 -42
-25z"/>
<path d="M3452 4458 c5 -15 28 -23 28 -10 0 5 -7 13 -16 16 -10 4 -14 1 -12
-6z"/>
<path d="M3720 4380 c0 -5 6 -10 14 -10 8 0 18 5 21 10 3 6 -3 10 -14 10 -12
0 -21 -4 -21 -10z"/>
<path d="M3271 4273 c-6 -21 -11 -43 -11 -48 0 -6 -12 -27 -26 -48 -29 -43
-26 -66 13 -97 41 -32 89 -27 129 15 29 32 64 113 64 151 0 18 -17 26 -41 19
-16 -5 -18 -10 -9 -20 18 -22 2 -55 -26 -55 -29 0 -42 25 -26 51 10 15 7 23
-14 44 -33 34 -41 32 -53 -12z m56 -89 c9 -24 -10 -49 -38 -49 -27 0 -37 28
-19 50 17 20 49 19 57 -1z"/>
<path d="M3981 4570 c-8 -4 -20 -6 -28 -3 -17 7 -17 -8 0 -31 12 -17 14 -16
31 9 19 29 18 39 -3 25z"/>
<path d="M4135 4570 c-19 -8 -19 -9 2 -9 12 -1 25 4 28 9 7 12 -2 12 -30 0z"/>
<path d="M2828 4183 c7 -3 16 -2 19 1 4 3 -2 6 -13 5 -11 0 -14 -3 -6 -6z"/>
<path d="M2690 4803 c0 -13 234 -163 254 -163 8 0 -21 24 -55 45 -9 6 -48 31
-86 56 -86 57 -113 72 -113 62z"/>
<path d="M4115 4140 c11 -5 31 -8 45 -8 l25 0 -25 8 c-14 4 -34 8 -45 8 l-20
1 20 -9z"/>
<path d="M4040 3784 c-224 -38 -387 -130 -406 -230 -4 -21 -4 -124 -1 -228 4
-105 7 -217 7 -248 0 -48 3 -58 17 -58 10 0 81 24 158 54 167 65 217 81 310
96 39 7 74 16 79 20 12 11 -47 477 -72 565 -9 31 -32 39 -92 29z m48 -61 c-2
-13 -23 -20 -83 -30 -97 -16 -207 -56 -256 -95 -60 -46 -79 -34 -34 21 14 16
54 43 88 59 54 26 85 35 192 56 11 2 37 4 58 5 31 1 38 -2 35 -16z m27 -75 c2
-7 14 -89 25 -183 11 -93 23 -184 26 -202 6 -41 -6 -48 -201 -102 -82 -23
-174 -53 -203 -67 -72 -34 -82 -28 -82 43 0 32 -3 121 -6 198 l-6 140 42 44
c93 95 194 135 348 140 34 0 54 -3 57 -11z"/>
<path d="M3900 3587 c-82 -28 -155 -71 -177 -103 -14 -23 -15 -27 -1 -41 14
-14 14 -18 0 -43 -15 -26 -15 -30 1 -47 15 -17 15 -21 1 -41 -16 -23 -12 -42
10 -42 7 0 30 15 52 33 80 67 153 97 240 97 38 0 64 13 64 33 0 6 -35 8 -82 5
-71 -4 -94 -10 -155 -41 -90 -46 -109 -47 -62 -3 42 39 127 74 224 90 50 9 71
17 73 28 5 25 -7 27 -90 18 -57 -7 -97 -19 -148 -44 -78 -39 -92 -43 -84 -22
15 39 152 98 257 111 38 5 57 12 57 21 0 22 -105 17 -180 -9z"/>
<path d="M3994 3345 c-117 -21 -205 -55 -251 -98 -27 -24 -30 -55 -7 -64 12
-4 14 -14 10 -34 -3 -16 -2 -29 3 -29 5 0 35 20 68 44 74 56 112 71 198 81 78
8 95 13 95 27 0 21 -133 -2 -220 -38 -145 -60 -165 -57 -76 12 53 43 118 66
225 80 33 4 51 11 51 20 0 16 -3 16 -96 -1z"/>
<path d="M4211 3602 c-6 -12 -5 -28 5 -51 8 -18 14 -47 14 -65 1 -57 28 -189
41 -197 36 -22 38 25 5 189 -14 67 -27 126 -31 132 -9 15 -23 12 -34 -8z"/>
<path d="M2886 3755 c-7 -18 -43 -335 -52 -461 l-7 -91 74 -26 c134 -46 176
-64 285 -121 59 -31 115 -56 124 -56 33 0 37 486 5 550 -21 41 -116 124 -175
153 -53 26 -195 67 -231 67 -9 0 -19 -7 -23 -15z m142 -49 c115 -31 252 -119
252 -163 0 -21 -13 -16 -56 21 -61 52 -202 116 -258 116 -28 0 -50 15 -42 29
9 15 40 14 104 -3z m-13 -71 c109 -29 189 -79 253 -157 l32 -41 0 -193 c0
-121 -4 -195 -10 -199 -6 -4 -32 6 -58 20 -26 15 -116 56 -201 91 -85 35 -158
69 -162 76 -5 7 -6 29 -4 48 3 19 12 106 20 193 8 86 17 162 20 167 9 14 42
12 110 -5z"/>
<path d="M2937 3594 c-15 -15 -6 -22 36 -29 51 -8 196 -76 221 -104 33 -36 12
-41 -39 -9 -68 43 -137 68 -186 68 -32 0 -40 -3 -37 -17 2 -10 25 -22 66 -34
79 -22 137 -50 181 -87 54 -45 34 -57 -27 -16 -71 48 -204 86 -218 62 -10 -17
21 -35 74 -43 63 -9 116 -38 177 -96 64 -61 79 -63 70 -10 -4 24 -2 42 4 46 7
4 6 17 -3 40 -9 21 -11 37 -5 40 37 24 -37 100 -145 150 -72 34 -155 53 -169
39z"/>
<path d="M2932 3339 c2 -7 37 -20 78 -31 41 -11 93 -30 115 -43 48 -28 101
-82 91 -92 -3 -4 -48 14 -99 40 -84 43 -183 75 -194 63 -9 -9 8 -26 25 -26 9
0 49 -10 89 -21 54 -16 86 -34 130 -70 31 -27 61 -49 65 -49 5 0 6 11 2 25 -5
19 -2 25 10 25 22 0 20 32 -4 62 -44 56 -323 162 -308 117z"/>
<path d="M2754 3575 c-22 -33 -41 -118 -50 -216 -6 -67 -4 -79 8 -79 9 0 20 6
26 13 16 19 52 307 39 307 -4 0 -14 -11 -23 -25z"/>
<path d="M1490 5703 c-51 -11 -127 -46 -192 -89 -113 -75 -224 -208 -433 -514
-148 -219 -200 -285 -315 -404 -116 -119 -155 -149 -247 -189 -193 -83 -183
-77 -183 -112 0 -23 15 -53 54 -106 89 -123 112 -182 146 -374 18 -102 23
-182 30 -540 8 -397 10 -425 33 -518 34 -135 77 -219 151 -293 58 -58 168
-124 208 -124 53 0 63 44 29 143 -11 30 -22 82 -26 114 -4 32 -15 101 -25 153
-33 166 -46 423 -32 632 24 342 33 422 56 498 13 41 34 111 46 155 48 173 87
276 166 440 62 130 161 297 209 354 25 29 45 58 45 64 0 16 129 181 202 259
35 37 126 124 203 194 185 167 197 193 111 237 -38 20 -181 32 -236 20z m232
-61 l23 -23 -61 -57 c-360 -340 -411 -397 -601 -682 -124 -185 -247 -461 -328
-731 -74 -248 -79 -278 -97 -519 -24 -321 -14 -603 27 -805 8 -38 17 -96 20
-128 4 -32 15 -84 26 -114 22 -65 24 -103 7 -103 -19 0 -130 56 -153 77 -46
41 -96 114 -124 179 -57 135 -63 183 -71 614 -8 396 -16 495 -56 678 -21 99
-54 169 -124 268 -33 47 -60 90 -60 98 0 8 28 24 63 37 158 58 218 95 323 196
125 122 203 218 329 403 286 422 351 496 511 586 89 50 105 53 221 51 92 -2
105 -4 125 -25z"/>
<path d="M6198 2473 c-20 -22 -41 -72 -79 -188 -74 -221 -323 -636 -509 -850
-309 -354 -738 -652 -1165 -810 -109 -40 -171 -57 -335 -90 -69 -14 -147 -30
-175 -36 -27 -5 -106 -13 -175 -16 -69 -3 -133 -10 -142 -15 -43 -22 -12 -93
72 -163 87 -73 127 -85 285 -85 176 0 242 16 640 158 77 28 176 60 220 72 44
12 100 28 125 36 169 51 348 57 508 18 122 -30 151 -32 163 -13 5 8 6 50 3 94
-10 120 42 341 101 437 18 29 63 107 100 172 36 65 101 164 143 220 89 116
223 314 270 398 18 32 51 104 74 160 40 98 42 108 43 209 0 102 -1 107 -37
180 -37 76 -80 129 -103 129 -6 0 -19 -8 -27 -17z m72 -79 c49 -77 62 -132 57
-236 -2 -69 -10 -111 -30 -164 -50 -133 -176 -339 -337 -549 -88 -115 -115
-157 -172 -263 -22 -43 -55 -100 -73 -127 -66 -101 -131 -364 -119 -482 8 -74
13 -72 -101 -42 -133 34 -187 41 -262 35 -132 -10 -461 -94 -658 -167 -395
-147 -571 -182 -710 -145 -80 21 -120 44 -175 99 -65 67 -65 93 0 89 119 -9
505 60 705 125 283 92 679 320 931 536 125 107 318 304 385 392 184 243 375
579 447 787 45 129 58 158 73 158 5 0 23 -21 39 -46z"/>
<path d="M747 2358 c-47 -58 -77 -153 -77 -242 1 -196 80 -351 387 -751 223
-292 309 -444 357 -634 19 -75 26 -130 26 -197 0 -122 5 -125 133 -90 117 33
202 46 298 46 78 0 234 -20 311 -40 40 -11 288 -94 455 -154 201 -72 233 -77
438 -76 l189 0 69 32 c72 33 114 73 148 140 16 31 19 46 11 63 -10 21 -18 22
-164 29 -334 15 -579 65 -860 175 -195 77 -339 159 -588 337 -115 82 -137 99
-305 251 -265 240 -531 628 -661 967 -29 76 -60 149 -69 162 -24 37 -58 31
-98 -18z m109 -102 c104 -277 234 -500 453 -776 121 -152 377 -396 519 -492
34 -24 120 -82 191 -131 201 -137 414 -236 668 -311 193 -57 336 -81 573 -96
96 -6 180 -13 187 -15 21 -7 -5 -61 -47 -99 -108 -98 -307 -126 -534 -76 -55
12 -156 42 -225 67 -407 145 -474 164 -634 184 -139 17 -280 8 -404 -26 -56
-15 -109 -25 -117 -22 -13 5 -16 24 -16 91 0 187 -62 365 -203 582 -54 84
-108 158 -249 342 -240 314 -312 459 -311 632 0 96 25 178 70 226 24 26 26 27
39 9 7 -10 25 -50 40 -89z"/>
</g>
</svg>
